<svg id="圖層_1" data-name="圖層 1" xmlns="http://www.w3.org/2000/svg" viewBox="0 0 256 52"><defs><style>.cls-1{fill:#57ff5f;}.cls-2{fill:#8300ff;}.cls-3{fill:#3897ff;}.cls-4{fill:#ff0087;}.cls-5{fill:#ffd400;}.cls-6{fill:#fff;}</style></defs><title>lennonwallHK-logo</title><rect class="cls-1" x="7.5" y="7.7209" width="6.639" height="6.639"/><rect class="cls-1" x="7.5" y="15.6877" width="6.639" height="6.639"/><rect class="cls-1" x="7.5" y="23.65451" width="6.639" height="6.639"/><rect class="cls-1" x="7.5" y="31.62131" width="6.639" height="6.639"/><rect class="cls-1" x="7.5" y="39.58812" width="6.639" height="6.639"/><rect class="cls-1" x="15.4668" y="39.62306" width="6.639" height="6.639"/><rect class="cls-1" x="23.43361" y="39.58812" width="6.639" height="6.639"/><rect class="cls-1" x="31.40041" y="39.62306" width="6.639" height="6.639"/><rect class="cls-2" x="140.94398" y="7.7209" width="6.639" height="6.639"/><rect class="cls-2" x="140.94398" y="15.6877" width="6.639" height="6.639"/><rect class="cls-2" x="140.94398" y="23.65451" width="6.639" height="6.639"/><rect class="cls-2" x="140.94398" y="31.62131" width="6.639" height="6.639"/><rect class="cls-2" x="140.94398" y="39.58812" width="6.639" height="6.639"/><rect class="cls-2" x="148.91079" y="7.75584" width="6.639" height="6.639"/><rect class="cls-2" x="148.91079" y="39.62306" width="6.639" height="6.639"/><rect class="cls-2" x="156.87759" y="7.7209" width="6.639" height="6.639"/><rect class="cls-2" x="156.87759" y="39.58812" width="6.639" height="6.639"/><rect class="cls-2" x="164.8444" y="7.75584" width="6.639" height="6.639"/><rect class="cls-2" x="164.8444" y="15.72265" width="6.639" height="6.639"/><rect class="cls-2" x="164.8444" y="23.68945" width="6.639" height="6.639"/><rect class="cls-2" x="164.8444" y="31.65626" width="6.639" height="6.639"/><rect class="cls-2" x="164.8444" y="39.62306" width="6.639" height="6.639"/><rect class="cls-3" x="75.21784" y="7.7209" width="6.639" height="6.639"/><rect class="cls-3" x="75.21784" y="15.6877" width="6.639" height="6.639"/><rect class="cls-3" x="75.21784" y="23.65451" width="6.639" height="6.639"/><rect class="cls-3" x="75.21784" y="31.62131" width="6.639" height="6.639"/><rect class="cls-3" x="75.21784" y="39.58812" width="6.639" height="6.639"/><rect class="cls-3" x="83.18465" y="15.72265" width="6.639" height="6.639"/><rect class="cls-3" x="91.15145" y="23.65451" width="6.639" height="6.639"/><rect class="cls-3" x="99.11826" y="7.75584" width="6.639" height="6.639"/><rect class="cls-3" x="99.11826" y="15.72265" width="6.639" height="6.639"/><rect class="cls-3" x="99.11826" y="23.68945" width="6.639" height="6.639"/><rect class="cls-3" x="99.11826" y="31.65626" width="6.639" height="6.639"/><rect class="cls-3" x="99.11826" y="39.62306" width="6.639" height="6.639"/><rect class="cls-3" x="107.08506" y="7.7209" width="6.639" height="6.639"/><rect class="cls-3" x="107.08506" y="15.6877" width="6.639" height="6.639"/><rect class="cls-3" x="107.08506" y="23.65451" width="6.639" height="6.639"/><rect class="cls-3" x="107.08506" y="31.62131" width="6.639" height="6.639"/><rect class="cls-3" x="107.08506" y="39.58812" width="6.639" height="6.639"/><rect class="cls-3" x="115.05187" y="15.72265" width="6.639" height="6.639"/><rect class="cls-3" x="123.01867" y="23.65451" width="6.639" height="6.639"/><rect class="cls-3" x="130.98548" y="7.75584" width="6.639" height="6.639"/><rect class="cls-3" x="130.98548" y="15.72265" width="6.639" height="6.639"/><rect class="cls-3" x="130.98548" y="23.68945" width="6.639" height="6.639"/><rect class="cls-3" x="130.98548" y="31.65626" width="6.639" height="6.639"/><rect class="cls-3" x="130.98548" y="39.62306" width="6.639" height="6.639"/><rect class="cls-4" x="174.8029" y="7.7209" width="6.639" height="6.639"/><rect class="cls-4" x="174.8029" y="15.6877" width="6.639" height="6.639"/><rect class="cls-4" x="174.8029" y="23.65451" width="6.639" height="6.639"/><rect class="cls-4" x="174.8029" y="31.62131" width="6.639" height="6.639"/><rect class="cls-4" x="174.8029" y="39.58812" width="6.639" height="6.639"/><rect class="cls-4" x="182.76971" y="15.72265" width="6.639" height="6.639"/><rect class="cls-4" x="190.73651" y="23.65451" width="6.639" height="6.639"/><rect class="cls-4" x="198.70332" y="7.75584" width="6.639" height="6.639"/><rect class="cls-4" x="198.70332" y="15.72265" width="6.639" height="6.639"/><rect class="cls-4" x="198.70332" y="23.68945" width="6.639" height="6.639"/><rect class="cls-4" x="198.70332" y="31.65626" width="6.639" height="6.639"/><rect class="cls-4" x="198.70332" y="39.62306" width="6.639" height="6.639"/><rect class="cls-5" x="41.35892" y="7.7209" width="6.639" height="6.639"/><rect class="cls-5" x="41.35892" y="15.6877" width="6.639" height="6.639"/><rect class="cls-5" x="41.35892" y="23.65451" width="6.639" height="6.639"/><rect class="cls-5" x="41.35892" y="31.62131" width="6.639" height="6.639"/><rect class="cls-5" x="41.35892" y="39.58812" width="6.639" height="6.639"/><rect class="cls-5" x="49.32573" y="7.75584" width="6.639" height="6.639"/><rect class="cls-5" x="49.32573" y="23.68945" width="6.639" height="6.639"/><rect class="cls-5" x="49.32573" y="39.62306" width="6.639" height="6.639"/><rect class="cls-5" x="57.29253" y="7.7209" width="6.639" height="6.639"/><rect class="cls-5" x="57.29253" y="23.65451" width="6.639" height="6.639"/><rect class="cls-5" x="57.29253" y="39.58812" width="6.639" height="6.639"/><rect class="cls-5" x="65.25934" y="7.75584" width="6.639" height="6.639"/><rect class="cls-5" x="65.25934" y="23.68945" width="6.639" height="6.639"/><rect class="cls-5" x="65.25934" y="39.62306" width="6.639" height="6.639"/><rect class="cls-4" x="208.66183" y="31.65626" width="38.83817" height="14.60581"/><path class="cls-6" d="M216.05631,41.07a.79542.79542,0,0,0-.17181-.24167.36165.36165,0,0,0-.22562-.05916.35762.35762,0,0,0-.23632.12885,2.49967,2.49967,0,0,0-.26858.32774q-.13956.19887-.28462.44573-.1449.24726-.27927.47264t-.25772.40278a1.176,1.176,0,0,1-.22027.25237v-.37587q.06467-.10748.23632-.37069.17189-.26307.36518-.5639.19353-.30049.36534-.56924.17165-.26841.23615-.37588l.07521-.15041a.03148.03148,0,0,0-.0107-.02156.03051.03051,0,0,1-.01069-.02139.326.326,0,0,0-.19337.11281,2.73827,2.73827,0,0,0-.25772.29q-.1398.17724-.29013.39743-.1505.22028-.28462.435-.13444.21492-.23632.39743a2.65542,2.65542,0,0,0-.1449.29,1.30775,1.30775,0,0,0-.10212.46729,2.35389,2.35389,0,0,1-.043.41348.4968.4968,0,0,1-.17716.29532.83207.83207,0,0,1-.50489.11281.95413.95413,0,0,1-.64446-.231.761.761,0,0,1-.26857-.60685,1.34442,1.34442,0,0,1,.08591-.48333,1.37831,1.37831,0,0,0,.0859-.494,2.99343,2.99343,0,0,0-.059-.60685q-.05909-.2847-.10211-.59615v-.30082q-.0107-.19329-.02675-.51025-.016-.31655-.03225-.67119-.016-.35448-.03226-.71966-.016-.36518-.02674-.67671-.01093-.31145-.02156-.52629c-.00729-.14328-.0107-.23275-.0107-.26857a2.28724,2.28724,0,0,0-.0752-.45108q-.06444-.247-.13437-.4835-.06978-.23609-.12351-.45109a1.57636,1.57636,0,0,1-.05365-.37587.458.458,0,0,1,.11816-.32223,2.23921,2.23921,0,0,1,.26857-.247c.02853,0,.08591-.00179.17181-.00551.08591-.00341.13956-.00535.16112-.00535a.81481.81481,0,0,1,.48334.11281.77573.77573,0,0,1,.23632.42434q-.02165.44053-.0107.79486.01045.35424.03225.7088.0214.35448.059.73052.03744.37611.06986.84851v.37588q0,.1398.0107.48868.01069.34938.0269.74657.016.39751.02675.74656t.01086.48869a.10135.10135,0,0,0,.05365.016c.02852.00373.04652.00535.05365.00535q.10722,0,.23632-.20406a4.29142,4.29142,0,0,0,.25253-.46713q.12325-.26307.22546-.51025a2.6089,2.6089,0,0,1,.15576-.33292q.0107-.02139.05365-.08606c.02853-.043.05916-.08931.09142-.13956q.04814-.07512.09125-.13972a.62658.62658,0,0,1,.06451-.0859.40785.40785,0,0,1,.07505-.08056c.04311-.03922.06807-.06256.0752-.0697a1.65109,1.65109,0,0,0,.18267-.38138,3.39239,3.39239,0,0,1,.17716-.42434,1.189,1.189,0,0,1,.25253-.34362.56066.56066,0,0,1,.39743-.13972.69273.69273,0,0,1,.27376.04847.51.51,0,0,1,.20958.18785.3257.3257,0,0,1,.07521.12351.48229.48229,0,0,1,.0107.10211c0,.03583.00162.077.00534.12351a.50566.50566,0,0,0,.059.17716,2.773,2.773,0,0,0,.33309.5318,3.4557,3.4557,0,0,1,.34362.52094q.21492.39752.39743.83247a4.97606,4.97606,0,0,0,.42969.81092.37237.37237,0,0,0,.11816.02139.21151.21151,0,0,0,.20941-.12886.61631.61631,0,0,0,.05916-.25771,2.06541,2.06541,0,0,0-.08055-.5639,2.09669,2.09669,0,0,1-.08056-.57475q0-.48334.02675-1.02033a2.65767,2.65767,0,0,1,.24166-.99893v-2.5564a.25465.25465,0,0,1,.08056-.17181.86682.86682,0,0,1,.188-.15042,1.12036,1.12036,0,0,1,.22027-.10211.60524.60524,0,0,1,.17716-.0376.61706.61706,0,0,1,.478.19336.70279.70279,0,0,1,.17716.494,2.78338,2.78338,0,0,1-.12886.83247,4.90507,4.90507,0,0,0-.18251.82177v.6767q-.01094.13956-.03225.47264-.02165.33285-.04295.70345-.02165.37053-.043.69827-.02163.32774-.03225.44573a2.14487,2.14487,0,0,1-.06986.35983q-.04838.16654-.10195.32757-.054.16119-.09677.32223a1.37288,1.37288,0,0,0-.04295.35448,3.99544,3.99544,0,0,0,.08591.827,4.01084,4.01084,0,0,1,.0859.82712.52045.52045,0,0,1-.06969.247,1.1091,1.1091,0,0,1-.172.23632,1.03724,1.03724,0,0,1-.23081.18267.49258.49258,0,0,1-.24718.07521,1.45821,1.45821,0,0,1-.40278-.04846.97388.97388,0,0,1-.30067-.14491,1.15293,1.15293,0,0,1-.24166-.23632q-.10747-.13955-.22563-.32222-.06442-.09676-.23632-.35448t-.36517-.5425q-.19329-.28446-.36518-.54234Q216.12073,41.17745,216.05631,41.07Zm-2.42755-2.72822a.15.15,0,0,1,.14507.0697.39826.39826,0,0,1,.04295.16662,1.10967,1.10967,0,0,1-.00535.18786.40213.40213,0,0,0,0,.13436c0,.00714.02318.03048.06986.0697a.40639.40639,0,0,1,.08056.08056c.007.05738.01069.0932.01069.10746a.39.39,0,0,1-.0269.15041.12447.12447,0,1,1-.247-.0269.49393.49393,0,0,1-.0376-.15577c0-.02852-.00179-.08055-.00535-.15576q-.00559-.11281-.0107-.24167-.00559-.12885-.01086-.23632Q213.62876,38.38481,213.62876,38.34178Zm1.83675,1.75068q-.043-.01046-.04295.04295c0,.02869.01426.03955.04295.03226.02156-.007.03225-.01783.03225-.03226C215.49776,40.12115,215.48707,40.10689,215.46551,40.09246Zm.07521-.22546a2.10708,2.10708,0,0,1,.31152.12351.42232.42232,0,0,1,.20407.25237.06191.06191,0,0,0,.0107-.043v-.06451a1.988,1.988,0,0,0-.01605-.23081,2.1414,2.1414,0,0,0-.0483-.26322.89451.89451,0,0,0-.09142-.231.28849.28849,0,0,0-.1449-.13421.44986.44986,0,0,0-.17732.27927A1.35922,1.35922,0,0,0,215.54072,39.867Zm.56924.44038a.97761.97761,0,0,0,.13972.42418,6.16392,6.16392,0,0,0,.32222.53715q.1826.27376.35983.53164.17724.25771.25237.39743.02139.043.0752.15042l.11281.22546q.05884.11839.11282.22562.05348.10746.0752.15042c0-.01427.00162-.05187.00535-.11282.00341-.06078.00535-.09838.00535-.11281a.98055.98055,0,0,0-.09125-.33827q-.09142-.22-.231-.48885-.1398-.26817-.31153-.553-.1719-.28446-.33292-.51559a3.571,3.571,0,0,0-.29549-.376Q216.17423,40.30739,216.11,40.30738Zm1.75084-2.87863a.73164.73164,0,0,1,.04295-.24166.76616.76616,0,0,0,.043-.25253.58222.58222,0,0,0-.043-.23616.61093.61093,0,0,1-.04295-.24718V36.376a1.00877,1.00877,0,0,1,.01621-.17716.09593.09593,0,0,1,.10195-.09125.15009.15009,0,0,1,.15577.102.57674.57674,0,0,1,.0376.19872.83315.83315,0,0,1-.03226.231q-.03208.11281-.05365.231l-.0752.6767-.07521.07521-.07521-.15041Z"/><path class="cls-6" d="M223.33879,42.17623a1.85742,1.85742,0,0,1-.16111.11816q-.09677.06442-.19872.129a1.5469,1.5469,0,0,1-.19871.1073.43167.43167,0,0,1-.17182.04295.92951.92951,0,0,1,.043-.31137,1.08506,1.08506,0,0,1,.0966-.20422q.05373-.08583.09676-.15026a.24763.24763,0,0,0,.043-.13971v-.043q-.11841-.07488-.19337-.11281a.40739.40739,0,0,0-.18267-.0376.1451.1451,0,0,0-.12886.04846.24058.24058,0,0,0-.03225.13421.28376.28376,0,0,0,.04295.16111.26586.26586,0,0,1,.043.15042,1.1116,1.1116,0,0,1-.11265.48333,1.13347,1.13347,0,0,0-.11281.494v.10746a.29065.29065,0,0,1,.0483-.12886.13986.13986,0,0,1,.12351-.05381.41646.41646,0,0,1-.0859.26858.62194.62194,0,0,1-.22028.17181,1.25993,1.25993,0,0,1-.29.09676,1.46734,1.46734,0,0,1-.29532.03226.70589.70589,0,0,1-.49419-.19872.62774.62774,0,0,1-.21477-.478,1.71178,1.71178,0,0,1,.12886-.65,5.53147,5.53147,0,0,1,.30083-.62289q.17164-.30611.34913-.60685a2.89491,2.89491,0,0,0,.27376-.61236q.39728-1.19229.82178-2.28248.42424-1.08995.98272-2.218.01069-.02139.04311-.09677.0321-.07488.0697-.16646.03768-.09117.06986-.16646.03234-.07488.043-.0966.01069-.0428.0483-.15577.03768-.1128.08591-.22562a1.11672,1.11672,0,0,1,.11281-.20406q.06442-.09117.129-.09126h.51543l.15041.15042a2.93058,2.93058,0,0,0,.14507.77866,6.61361,6.61361,0,0,0,.29.725q.1663.35448.35448.709.18769.35448.33827.71966a9.05916,9.05916,0,0,1,.45659,1.36946q.1663.68221.29532,1.40171a1.34619,1.34619,0,0,0,.14507.38138,4.77768,4.77768,0,0,0,.26306.42953q.15025.22027.32223.45659t.31153.45643a3.18949,3.18949,0,0,1,.231.42969.96652.96652,0,0,1,.09125.38123.44605.44605,0,0,1-.24167.435,1.08252,1.08252,0,0,1-.49938.12351.81209.81209,0,0,1-.44574-.1073.927.927,0,0,1-.27392-.26857,1.54,1.54,0,0,1-.172-.34379,3.02509,3.02509,0,0,0-.14491-.34362,1.02769,1.02769,0,0,0-.188-.26857.407.407,0,0,0-.30067-.10746Zm1.869-1.57887a.679.679,0,0,0,.09661.02155c.043.00713.08768.01443.1342.0214.04652.00729.09142.01442.13437.02155a.65762.65762,0,0,0,.08591.0107.33734.33734,0,0,1,.04295.00535.30467.30467,0,0,0,.04295.00535.24951.24951,0,0,0,.15576-.05365.16831.16831,0,0,0,.06986-.13972.58355.58355,0,0,0-.10211-.29532q-.10212-.16653-.22546-.34913-.12375-.18258-.24167-.37587a1.09262,1.09262,0,0,1-.15041-.36518v.30067a.29073.29073,0,0,1-.18267-.16646,2.68928,2.68928,0,0,1-.09661-.25772.74567.74567,0,0,0-.12351-.23632.32935.32935,0,0,0-.27392-.10211.31394.31394,0,0,0-.30618.19871,2.23105,2.23105,0,0,0-.1449.42969,4.14387,4.14387,0,0,1-.12367.42969q-.06978.19887-.23081.19871a1.13041,1.13041,0,0,0-.03761-.20957.408.408,0,0,1-.0162-.20942.42529.42529,0,0,1,.04295-.11281q.04278-.09117.09676-.19336c.03566-.06792.06986-.13048.102-.18786.03226-.05722.05187-.093.05917-.10746a3.49236,3.49236,0,0,0,.11816-.34379q.07488-.24677.15576-.50473.08048-.25771.15576-.46194c.04993-.13583.09288-.20407.12886-.20407a.08733.08733,0,0,1,.03226.0107c.04992.01443.0752.03955.0752.07521v-.22546h-.15041c.04295-.01426.06791-.03388.07521-.05916a.34216.34216,0,0,0,.01069-.09126q0-.12885-.08055-.14506a.97263.97263,0,0,0-.188-.016c-.01443,0-.04474.00178-.09126.00535-.04668.00373-.077.00535-.09125.00535a.31057.31057,0,0,0-.04846.11281.61266.61266,0,0,0-.02675.11281.67.67,0,0,1-.01086.08591c-.00713.04295-.016.08963-.02674.13955-.0107.05025-.01978.09855-.02691.14507q-.0107.07-.01069.08055-.06444.19329-.17733.52095-.11256.32774-.24166.67135-.12886.34379-.25772.65515a3.74931,3.74931,0,0,1-.22562.47264l-.08591.08591a1.40776,1.40776,0,0,0-.12885.15041,1.95491,1.95491,0,0,0-.11816.17716.32115.32115,0,0,0-.05366.15576.0793.0793,0,0,0,.0107.03226.18512.18512,0,0,0,.03761.0483c.01783.018.03031.02691.03758.02691Zm-1.11709,1.10639q-.17189,0-.34913.016a1.07126,1.07126,0,0,0-.32757.08056h.6767Zm.5908.02139a.95111.95111,0,0,0-.15041.02691.37638.37638,0,0,0-.13972.0483h.5908a.379.379,0,0,0-.13955-.0483A.9042.9042,0,0,0,224.6815,41.72514Zm.36518-3.09339a.34423.34423,0,0,0,.0214.12886.64649.64649,0,0,0,.06451.11816.19355.19355,0,0,0,.0483-.03761c.01783-.01783.0269-.03031.0269-.0376a.06275.06275,0,0,0,.0107-.04295.10377.10377,0,0,0-.05916-.09661A.23528.23528,0,0,0,225.04668,38.63175Zm.537,3.1686c.00713-.007-.00178-.01426-.02691-.02156a.34382.34382,0,0,0-.09125-.01069.29868.29868,0,0,0-.08056.01069c-.02512.0073-.034.01459-.0269.02156a.16624.16624,0,0,0,.11816.03226Q225.562,41.83261,225.58367,41.80035Zm.52629-.22562a.235.235,0,0,0-.17181.05381,1.03118,1.03118,0,0,0-.12886.17181h.48334a.31629.31629,0,0,0-.03761-.16111A.15382.15382,0,0,0,226.11,41.57473Z"/><path class="cls-6" d="M229.98736,43.39008q-.1719-.11816-.27393-.19337t-.19871-.15041a1.58492,1.58492,0,0,1-.12886-.10746.272.272,0,0,1-.08056-.16647q.00536-.05883.00535-.19871,0-2.05126.04847-4.06007.04814-2.00849.02674-4.06023a.6746.6746,0,0,1,.24167-.21476.6494.6494,0,0,1,.31687-.08591,1.12007,1.12007,0,0,1,.36518.059.5211.5211,0,0,1,.27928.24167c0,.036-.00179.0932-.00535.172-.00373.07877-.00535.16111-.00535.247s.00162.16824.00535.247q.00534.11839.00535.16111a.46089.46089,0,0,0,.0376.11281.4733.4733,0,0,1,.0376.11281,1.70153,1.70153,0,0,1-.0752.47264,1.79839,1.79839,0,0,0-.07521.50473q0,.19329-.00535.59615-.00559.40287-.016.91838-.01094.51567-.01621,1.07413t-.016,1.07414q-.0107.51543-.01605.91838-.00559.40262-.00551.59615a.22913.22913,0,0,0-.043.075c-.01443.036-.02513.06094-.0321.07521V41.854q0,.15073.11265.172a1.06734,1.06734,0,0,0,.19872.0214,2.2085,2.2085,0,0,0,.29013-.016,2.1143,2.1143,0,0,0,.30067-.06986h4.9517a.25643.25643,0,0,1,.17181.06451.55687.55687,0,0,1,.12351.15026.66992.66992,0,0,1,.06986.18267.8086.8086,0,0,1,.02155.17181.7628.7628,0,0,1-.04311.25252.85118.85118,0,0,1-.118.22546.59923.59923,0,0,1-.188.16647.50023.50023,0,0,1-.25236.06451h-.08607q-.043-.01045-.16111-.03226-.11817-.02139-.247-.043-.12886-.0214-.25237-.04295-.12375-.02141-.16646-.03226h-4.57582a.54739.54739,0,0,0-.16111.0376.21822.21822,0,0,0-.13956.11282q.13931,0,.44038-.00535.30051-.00535.67671-.00535h1.58957q.37587,0,.6767.00535.30075.00558.44039.00535.07512,0,.27927.00534.204.00559.42969.01621t.42969.02675q.204.016.29.0269a.82078.82078,0,0,1,.15576.02691.54013.54013,0,0,1,.14507.0483l-.07521.07521-.67671.07521h-.20406q-.1719,0-.39743.00534t-.45109.00535h-.35448q-.4189,0-.87542.016-.45684.016-.92907.0107-.47289-.00511-.93458-.043A5.24439,5.24439,0,0,1,229.98736,43.39008Z"/><path class="cls-6" d="M238.44058,43.39008q-.17189-.11816-.27392-.19337t-.19872-.15041a1.58492,1.58492,0,0,1-.12886-.10746.27189.27189,0,0,1-.08055-.16647q.00534-.05883.00534-.19871,0-2.05126.04847-4.06007.04813-2.00849.02674-4.06023a.6746.6746,0,0,1,.24167-.21476.64944.64944,0,0,1,.31688-.08591,1.12006,1.12006,0,0,1,.36517.059.521.521,0,0,1,.27928.24167c0,.036-.00179.0932-.00535.172-.00373.07877-.00535.16111-.00535.247s.00162.16824.00535.247q.00534.11839.00535.16111a.46089.46089,0,0,0,.0376.11281.4733.4733,0,0,1,.0376.11281,1.70153,1.70153,0,0,1-.0752.47264,1.79839,1.79839,0,0,0-.07521.50473q0,.19329-.00535.59615-.0056.40287-.01605.91838-.01094.51567-.0162,1.07413t-.01605,1.07414q-.01069.51543-.01605.91838-.00558.40262-.00551.59615a.22931.22931,0,0,0-.04295.075c-.01443.036-.02512.06094-.03209.07521V41.854q0,.15073.11265.172a1.06715,1.06715,0,0,0,.19871.0214,2.20839,2.20839,0,0,0,.29013-.016,2.114,2.114,0,0,0,.30067-.06986h4.9517a.25641.25641,0,0,1,.17181.06451.5565.5565,0,0,1,.12351.15026.66992.66992,0,0,1,.06986.18267.80867.80867,0,0,1,.02156.17181.76282.76282,0,0,1-.04312.25252.85089.85089,0,0,1-.118.22546.59912.59912,0,0,1-.188.16647.50023.50023,0,0,1-.25236.06451h-.08607q-.043-.01045-.16111-.03226-.11815-.02139-.247-.043c-.0859-.01427-.17019-.02853-.25237-.04295q-.12375-.02141-.16646-.03226h-4.57582a.54745.54745,0,0,0-.16111.0376.21824.21824,0,0,0-.13956.11282q.13932,0,.44039-.00535.30049-.00535.6767-.00535h1.58957q.37587,0,.67671.00535.30074.00558.44038.00535.07514,0,.27927.00534.204.00559.42969.01621t.42969.02675q.204.016.29.0269a.82066.82066,0,0,1,.15576.02691.54013.54013,0,0,1,.14507.0483l-.07521.07521-.6767.07521h-.20407q-.17188,0-.39743.00534t-.45108.00535h-.35448q-.41892,0-.87543.016-.45683.016-.92907.0107-.47288-.00511-.93458-.043A5.24439,5.24439,0,0,1,238.44058,43.39008Z"/></svg>